<?xml version="1.0" encoding="UTF-8" standalone="no"?>
<!DOCTYPE svg PUBLIC "-//W3C//DTD SVG 1.1//EN"
 "http://www.w3.org/Graphics/SVG/1.1/DTD/svg11.dtd">
<!-- Generated by graphviz version 2.38.0 (20140413.2041)
 -->
<!-- Title: unnamed Pages: 1 -->
<svg width="711pt" height="483pt"
 viewBox="0.00 0.00 710.50 483.00" xmlns="http://www.w3.org/2000/svg" xmlns:xlink="http://www.w3.org/1999/xlink">
<g id="graph0" class="graph" transform="scale(1 1) rotate(0) translate(4 479)">
<title>unnamed</title>
<polygon fill="white" stroke="none" points="-4,4 -4,-479 706.5,-479 706.5,4 -4,4"/>
<!-- Node0xbb5eb78 -->
<g id="node1" class="node"><title>Node0xbb5eb78</title>
<polygon fill="none" stroke="black" points="168.5,-438.5 168.5,-474.5 272.5,-474.5 272.5,-438.5 168.5,-438.5"/>
<text text-anchor="middle" x="220.5" y="-452.8" font-family="Times,serif" font-size="14.00">CompoundStmt</text>
</g>
<!-- Node0xbb5e7f8 -->
<g id="node2" class="node"><title>Node0xbb5e7f8</title>
<polygon fill="none" stroke="black" points="37.5,-365.5 37.5,-401.5 105.5,-401.5 105.5,-365.5 37.5,-365.5"/>
<text text-anchor="middle" x="71.5" y="-379.8" font-family="Times,serif" font-size="14.00">DeclStmt</text>
</g>
<!-- Node0xbb5eb78&#45;&gt;Node0xbb5e7f8 -->
<g id="edge1" class="edge"><title>Node0xbb5eb78&#45;&gt;Node0xbb5e7f8</title>
<path fill="none" stroke="black" d="M184.811,-438.494C163.793,-428.479 137.057,-415.739 114.835,-405.15"/>
<polygon fill="black" stroke="black" points="116.15,-401.899 105.617,-400.757 113.139,-408.219 116.15,-401.899"/>
</g>
<!-- Node0xbb5e8a8 -->
<g id="node3" class="node"><title>Node0xbb5e8a8</title>
<polygon fill="none" stroke="black" points="134.5,-365.5 134.5,-401.5 202.5,-401.5 202.5,-365.5 134.5,-365.5"/>
<text text-anchor="middle" x="168.5" y="-379.8" font-family="Times,serif" font-size="14.00">DeclStmt</text>
</g>
<!-- Node0xbb5eb78&#45;&gt;Node0xbb5e8a8 -->
<g id="edge2" class="edge"><title>Node0xbb5eb78&#45;&gt;Node0xbb5e8a8</title>
<path fill="none" stroke="black" d="M207.912,-438.313C201.653,-429.766 193.965,-419.269 187.046,-409.823"/>
<polygon fill="black" stroke="black" points="189.704,-407.528 180.972,-401.529 184.057,-411.665 189.704,-407.528"/>
</g>
<!-- Node0xbb5eb00 -->
<g id="node4" class="node"><title>Node0xbb5eb00</title>
<polygon fill="none" stroke="black" points="235,-365.5 235,-401.5 312,-401.5 312,-365.5 235,-365.5"/>
<text text-anchor="middle" x="273.5" y="-379.8" font-family="Times,serif" font-size="14.00">WhileStmt</text>
</g>
<!-- Node0xbb5eb78&#45;&gt;Node0xbb5eb00 -->
<g id="edge3" class="edge"><title>Node0xbb5eb78&#45;&gt;Node0xbb5eb00</title>
<path fill="none" stroke="black" d="M233.33,-438.313C239.71,-429.766 247.545,-419.269 254.597,-409.823"/>
<polygon fill="black" stroke="black" points="257.611,-411.636 260.788,-401.529 252.002,-407.449 257.611,-411.636"/>
</g>
<!-- Node0xbb5eb60 -->
<g id="node5" class="node"><title>Node0xbb5eb60</title>
<polygon fill="none" stroke="black" points="440.5,-365.5 440.5,-401.5 520.5,-401.5 520.5,-365.5 440.5,-365.5"/>
<text text-anchor="middle" x="480.5" y="-379.8" font-family="Times,serif" font-size="14.00">ReturnStmt</text>
</g>
<!-- Node0xbb5eb78&#45;&gt;Node0xbb5eb60 -->
<g id="edge4" class="edge"><title>Node0xbb5eb78&#45;&gt;Node0xbb5eb60</title>
<path fill="none" stroke="black" d="M272.727,-440.455C275.694,-439.619 278.634,-438.796 281.5,-438 332.184,-423.918 390.296,-408.363 430.582,-397.672"/>
<polygon fill="black" stroke="black" points="431.655,-401.009 440.425,-395.063 429.862,-394.242 431.655,-401.009"/>
</g>
<!-- Node0xbb5e7d8 -->
<g id="node6" class="node"><title>Node0xbb5e7d8</title>
<polygon fill="none" stroke="black" points="0,-292.5 0,-328.5 91,-328.5 91,-292.5 0,-292.5"/>
<text text-anchor="middle" x="45.5" y="-306.8" font-family="Times,serif" font-size="14.00">IntegerLiteral</text>
</g>
<!-- Node0xbb5e7f8&#45;&gt;Node0xbb5e7d8 -->
<g id="edge5" class="edge"><title>Node0xbb5e7f8&#45;&gt;Node0xbb5e7d8</title>
<path fill="none" stroke="black" d="M65.2061,-365.313C62.2041,-357.115 58.5451,-347.123 55.1986,-337.985"/>
<polygon fill="black" stroke="black" points="58.4612,-336.715 51.7359,-328.529 51.8881,-339.123 58.4612,-336.715"/>
</g>
<!-- Node0xbb5e888 -->
<g id="node7" class="node"><title>Node0xbb5e888</title>
<polygon fill="none" stroke="black" points="109,-292.5 109,-328.5 200,-328.5 200,-292.5 109,-292.5"/>
<text text-anchor="middle" x="154.5" y="-306.8" font-family="Times,serif" font-size="14.00">IntegerLiteral</text>
</g>
<!-- Node0xbb5e8a8&#45;&gt;Node0xbb5e888 -->
<g id="edge6" class="edge"><title>Node0xbb5e8a8&#45;&gt;Node0xbb5e888</title>
<path fill="none" stroke="black" d="M165.111,-365.313C163.529,-357.289 161.608,-347.547 159.838,-338.569"/>
<polygon fill="black" stroke="black" points="163.226,-337.663 157.858,-328.529 156.359,-339.017 163.226,-337.663"/>
</g>
<!-- Node0xbb5e8e8 -->
<g id="node8" class="node"><title>Node0xbb5e8e8</title>
<polygon fill="none" stroke="black" points="218.5,-292.5 218.5,-328.5 328.5,-328.5 328.5,-292.5 218.5,-292.5"/>
<text text-anchor="middle" x="273.5" y="-306.8" font-family="Times,serif" font-size="14.00">ImplicitCastExpr</text>
</g>
<!-- Node0xbb5eb00&#45;&gt;Node0xbb5e8e8 -->
<g id="edge7" class="edge"><title>Node0xbb5eb00&#45;&gt;Node0xbb5e8e8</title>
<path fill="none" stroke="black" d="M273.5,-365.313C273.5,-357.289 273.5,-347.547 273.5,-338.569"/>
<polygon fill="black" stroke="black" points="277,-338.529 273.5,-328.529 270,-338.529 277,-338.529"/>
</g>
<!-- Node0xbb5ead0 -->
<g id="node9" class="node"><title>Node0xbb5ead0</title>
<polygon fill="none" stroke="black" points="346.5,-292.5 346.5,-328.5 450.5,-328.5 450.5,-292.5 346.5,-292.5"/>
<text text-anchor="middle" x="398.5" y="-306.8" font-family="Times,serif" font-size="14.00">CompoundStmt</text>
</g>
<!-- Node0xbb5eb00&#45;&gt;Node0xbb5ead0 -->
<g id="edge8" class="edge"><title>Node0xbb5eb00&#45;&gt;Node0xbb5ead0</title>
<path fill="none" stroke="black" d="M303.441,-365.494C320.17,-355.991 341.218,-344.036 359.253,-333.792"/>
<polygon fill="black" stroke="black" points="361.404,-336.596 368.37,-328.614 357.947,-330.509 361.404,-336.596"/>
</g>
<!-- Node0xbb5eb48 -->
<g id="node25" class="node"><title>Node0xbb5eb48</title>
<polygon fill="none" stroke="black" points="535.5,-292.5 535.5,-328.5 645.5,-328.5 645.5,-292.5 535.5,-292.5"/>
<text text-anchor="middle" x="590.5" y="-306.8" font-family="Times,serif" font-size="14.00">ImplicitCastExpr</text>
</g>
<!-- Node0xbb5eb60&#45;&gt;Node0xbb5eb48 -->
<g id="edge23" class="edge"><title>Node0xbb5eb60&#45;&gt;Node0xbb5eb48</title>
<path fill="none" stroke="black" d="M506.848,-365.494C521.435,-356.079 539.752,-344.255 555.525,-334.075"/>
<polygon fill="black" stroke="black" points="557.482,-336.977 563.986,-328.614 553.686,-331.096 557.482,-336.977"/>
</g>
<!-- Node0xbb5e8c0 -->
<g id="node11" class="node"><title>Node0xbb5e8c0</title>
<polygon fill="none" stroke="black" points="138.5,-219.5 138.5,-255.5 226.5,-255.5 226.5,-219.5 138.5,-219.5"/>
<text text-anchor="middle" x="182.5" y="-233.8" font-family="Times,serif" font-size="14.00">DeclRefExpr</text>
</g>
<!-- Node0xbb5e8e8&#45;&gt;Node0xbb5e8c0 -->
<g id="edge9" class="edge"><title>Node0xbb5e8e8&#45;&gt;Node0xbb5e8c0</title>
<path fill="none" stroke="black" d="M251.471,-292.313C239.735,-283.156 225.129,-271.76 212.384,-261.816"/>
<polygon fill="black" stroke="black" points="214.363,-258.921 204.326,-255.529 210.057,-264.44 214.363,-258.921"/>
</g>
<!-- Node0xbb5e9b0 -->
<g id="node12" class="node"><title>Node0xbb5e9b0</title>
<polygon fill="none" stroke="black" points="244.5,-219.5 244.5,-255.5 298.5,-255.5 298.5,-219.5 244.5,-219.5"/>
<text text-anchor="middle" x="271.5" y="-233.8" font-family="Times,serif" font-size="14.00">IfStmt</text>
</g>
<!-- Node0xbb5ead0&#45;&gt;Node0xbb5e9b0 -->
<g id="edge10" class="edge"><title>Node0xbb5ead0&#45;&gt;Node0xbb5e9b0</title>
<path fill="none" stroke="black" d="M368.08,-292.494C349.836,-282.294 326.536,-269.268 307.393,-258.566"/>
<polygon fill="black" stroke="black" points="309.084,-255.502 298.647,-253.677 305.668,-261.612 309.084,-255.502"/>
</g>
<!-- Node0xbb5ea50 -->
<g id="node13" class="node"><title>Node0xbb5ea50</title>
<polygon fill="none" stroke="black" points="317,-219.5 317,-255.5 480,-255.5 480,-219.5 317,-219.5"/>
<text text-anchor="middle" x="398.5" y="-233.8" font-family="Times,serif" font-size="14.00">CompoundAssignOperator</text>
</g>
<!-- Node0xbb5ead0&#45;&gt;Node0xbb5ea50 -->
<g id="edge11" class="edge"><title>Node0xbb5ead0&#45;&gt;Node0xbb5ea50</title>
<path fill="none" stroke="black" d="M398.5,-292.313C398.5,-284.289 398.5,-274.547 398.5,-265.569"/>
<polygon fill="black" stroke="black" points="402,-265.529 398.5,-255.529 395,-265.529 402,-265.529"/>
</g>
<!-- Node0xbb5eab0 -->
<g id="node14" class="node"><title>Node0xbb5eab0</title>
<polygon fill="none" stroke="black" points="498.5,-219.5 498.5,-255.5 596.5,-255.5 596.5,-219.5 498.5,-219.5"/>
<text text-anchor="middle" x="547.5" y="-233.8" font-family="Times,serif" font-size="14.00">UnaryOperator</text>
</g>
<!-- Node0xbb5ead0&#45;&gt;Node0xbb5eab0 -->
<g id="edge12" class="edge"><title>Node0xbb5ead0&#45;&gt;Node0xbb5eab0</title>
<path fill="none" stroke="black" d="M434.189,-292.494C454.68,-282.73 480.605,-270.376 502.484,-259.951"/>
<polygon fill="black" stroke="black" points="504.064,-263.075 511.586,-255.614 501.052,-256.756 504.064,-263.075"/>
</g>
<!-- Node0x0 -->
<g id="node10" class="node"><title>Node0x0</title>
<polygon fill="none" stroke="black" points="291,-438.5 291,-474.5 360,-474.5 360,-438.5 291,-438.5"/>
<text text-anchor="middle" x="325.5" y="-452.8" font-family="Times,serif" font-size="14.00">&lt;NULL&gt;</text>
</g>
<!-- Node0xbb5e980 -->
<g id="node15" class="node"><title>Node0xbb5e980</title>
<polygon fill="none" stroke="black" points="115,-146.5 115,-182.5 216,-182.5 216,-146.5 115,-146.5"/>
<text text-anchor="middle" x="165.5" y="-160.8" font-family="Times,serif" font-size="14.00">BinaryOperator</text>
</g>
<!-- Node0xbb5e9b0&#45;&gt;Node0xbb5e980 -->
<g id="edge13" class="edge"><title>Node0xbb5e9b0&#45;&gt;Node0xbb5e980</title>
<path fill="none" stroke="black" d="M246.11,-219.494C232.184,-210.166 214.729,-198.474 199.626,-188.358"/>
<polygon fill="black" stroke="black" points="201.306,-185.271 191.05,-182.614 197.41,-191.087 201.306,-185.271"/>
</g>
<!-- Node0xbb5e9a8 -->
<g id="node16" class="node"><title>Node0xbb5e9a8</title>
<polygon fill="none" stroke="black" points="234,-146.5 234,-182.5 309,-182.5 309,-146.5 234,-146.5"/>
<text text-anchor="middle" x="271.5" y="-160.8" font-family="Times,serif" font-size="14.00">BreakStmt</text>
</g>
<!-- Node0xbb5e9b0&#45;&gt;Node0xbb5e9a8 -->
<g id="edge14" class="edge"><title>Node0xbb5e9b0&#45;&gt;Node0xbb5e9a8</title>
<path fill="none" stroke="black" d="M271.5,-219.313C271.5,-211.289 271.5,-201.547 271.5,-192.569"/>
<polygon fill="black" stroke="black" points="275,-192.529 271.5,-182.529 268,-192.529 275,-192.529"/>
</g>
<!-- Node0xbb5e9e8 -->
<g id="node21" class="node"><title>Node0xbb5e9e8</title>
<polygon fill="none" stroke="black" points="326.5,-146.5 326.5,-182.5 414.5,-182.5 414.5,-146.5 326.5,-146.5"/>
<text text-anchor="middle" x="370.5" y="-160.8" font-family="Times,serif" font-size="14.00">DeclRefExpr</text>
</g>
<!-- Node0xbb5ea50&#45;&gt;Node0xbb5e9e8 -->
<g id="edge19" class="edge"><title>Node0xbb5ea50&#45;&gt;Node0xbb5e9e8</title>
<path fill="none" stroke="black" d="M391.722,-219.313C388.489,-211.115 384.549,-201.123 380.945,-191.985"/>
<polygon fill="black" stroke="black" points="384.14,-190.548 377.216,-182.529 377.628,-193.116 384.14,-190.548"/>
</g>
<!-- Node0xbb5ea38 -->
<g id="node22" class="node"><title>Node0xbb5ea38</title>
<polygon fill="none" stroke="black" points="432.5,-146.5 432.5,-182.5 542.5,-182.5 542.5,-146.5 432.5,-146.5"/>
<text text-anchor="middle" x="487.5" y="-160.8" font-family="Times,serif" font-size="14.00">ImplicitCastExpr</text>
</g>
<!-- Node0xbb5ea50&#45;&gt;Node0xbb5ea38 -->
<g id="edge20" class="edge"><title>Node0xbb5ea50&#45;&gt;Node0xbb5ea38</title>
<path fill="none" stroke="black" d="M420.044,-219.313C431.523,-210.156 445.808,-198.76 458.273,-188.816"/>
<polygon fill="black" stroke="black" points="460.519,-191.501 466.154,-182.529 456.154,-186.029 460.519,-191.501"/>
</g>
<!-- Node0xbb5ea88 -->
<g id="node24" class="node"><title>Node0xbb5ea88</title>
<polygon fill="none" stroke="black" points="560.5,-146.5 560.5,-182.5 648.5,-182.5 648.5,-146.5 560.5,-146.5"/>
<text text-anchor="middle" x="604.5" y="-160.8" font-family="Times,serif" font-size="14.00">DeclRefExpr</text>
</g>
<!-- Node0xbb5eab0&#45;&gt;Node0xbb5ea88 -->
<g id="edge22" class="edge"><title>Node0xbb5eab0&#45;&gt;Node0xbb5ea88</title>
<path fill="none" stroke="black" d="M561.298,-219.313C568.23,-210.679 576.759,-200.055 584.402,-190.534"/>
<polygon fill="black" stroke="black" points="587.298,-192.518 590.829,-182.529 581.839,-188.136 587.298,-192.518"/>
</g>
<!-- Node0xbb5e950 -->
<g id="node17" class="node"><title>Node0xbb5e950</title>
<polygon fill="none" stroke="black" points="46.5,-73.5 46.5,-109.5 156.5,-109.5 156.5,-73.5 46.5,-73.5"/>
<text text-anchor="middle" x="101.5" y="-87.8" font-family="Times,serif" font-size="14.00">ImplicitCastExpr</text>
</g>
<!-- Node0xbb5e980&#45;&gt;Node0xbb5e950 -->
<g id="edge15" class="edge"><title>Node0xbb5e980&#45;&gt;Node0xbb5e950</title>
<path fill="none" stroke="black" d="M150.007,-146.313C142.068,-137.505 132.261,-126.625 123.547,-116.958"/>
<polygon fill="black" stroke="black" points="126.145,-114.613 116.85,-109.529 120.946,-119.3 126.145,-114.613"/>
</g>
<!-- Node0xbb5e968 -->
<g id="node18" class="node"><title>Node0xbb5e968</title>
<polygon fill="none" stroke="black" points="174.5,-73.5 174.5,-109.5 284.5,-109.5 284.5,-73.5 174.5,-73.5"/>
<text text-anchor="middle" x="229.5" y="-87.8" font-family="Times,serif" font-size="14.00">ImplicitCastExpr</text>
</g>
<!-- Node0xbb5e980&#45;&gt;Node0xbb5e968 -->
<g id="edge16" class="edge"><title>Node0xbb5e980&#45;&gt;Node0xbb5e968</title>
<path fill="none" stroke="black" d="M180.993,-146.313C188.932,-137.505 198.739,-126.625 207.453,-116.958"/>
<polygon fill="black" stroke="black" points="210.054,-119.3 214.15,-109.529 204.855,-114.613 210.054,-119.3"/>
</g>
<!-- Node0xbb5e900 -->
<g id="node19" class="node"><title>Node0xbb5e900</title>
<polygon fill="none" stroke="black" points="57.5,-0.5 57.5,-36.5 145.5,-36.5 145.5,-0.5 57.5,-0.5"/>
<text text-anchor="middle" x="101.5" y="-14.8" font-family="Times,serif" font-size="14.00">DeclRefExpr</text>
</g>
<!-- Node0xbb5e950&#45;&gt;Node0xbb5e900 -->
<g id="edge17" class="edge"><title>Node0xbb5e950&#45;&gt;Node0xbb5e900</title>
<path fill="none" stroke="black" d="M101.5,-73.3129C101.5,-65.2895 101.5,-55.5475 101.5,-46.5691"/>
<polygon fill="black" stroke="black" points="105,-46.5288 101.5,-36.5288 98.0001,-46.5289 105,-46.5288"/>
</g>
<!-- Node0xbb5e928 -->
<g id="node20" class="node"><title>Node0xbb5e928</title>
<polygon fill="none" stroke="black" points="185.5,-0.5 185.5,-36.5 273.5,-36.5 273.5,-0.5 185.5,-0.5"/>
<text text-anchor="middle" x="229.5" y="-14.8" font-family="Times,serif" font-size="14.00">DeclRefExpr</text>
</g>
<!-- Node0xbb5e968&#45;&gt;Node0xbb5e928 -->
<g id="edge18" class="edge"><title>Node0xbb5e968&#45;&gt;Node0xbb5e928</title>
<path fill="none" stroke="black" d="M229.5,-73.3129C229.5,-65.2895 229.5,-55.5475 229.5,-46.5691"/>
<polygon fill="black" stroke="black" points="233,-46.5288 229.5,-36.5288 226,-46.5289 233,-46.5288"/>
</g>
<!-- Node0xbb5ea10 -->
<g id="node23" class="node"><title>Node0xbb5ea10</title>
<polygon fill="none" stroke="black" points="443.5,-73.5 443.5,-109.5 531.5,-109.5 531.5,-73.5 443.5,-73.5"/>
<text text-anchor="middle" x="487.5" y="-87.8" font-family="Times,serif" font-size="14.00">DeclRefExpr</text>
</g>
<!-- Node0xbb5ea38&#45;&gt;Node0xbb5ea10 -->
<g id="edge21" class="edge"><title>Node0xbb5ea38&#45;&gt;Node0xbb5ea10</title>
<path fill="none" stroke="black" d="M487.5,-146.313C487.5,-138.289 487.5,-128.547 487.5,-119.569"/>
<polygon fill="black" stroke="black" points="491,-119.529 487.5,-109.529 484,-119.529 491,-119.529"/>
</g>
<!-- Node0xbb5eb20 -->
<g id="node26" class="node"><title>Node0xbb5eb20</title>
<polygon fill="none" stroke="black" points="614.5,-219.5 614.5,-255.5 702.5,-255.5 702.5,-219.5 614.5,-219.5"/>
<text text-anchor="middle" x="658.5" y="-233.8" font-family="Times,serif" font-size="14.00">DeclRefExpr</text>
</g>
<!-- Node0xbb5eb48&#45;&gt;Node0xbb5eb20 -->
<g id="edge24" class="edge"><title>Node0xbb5eb48&#45;&gt;Node0xbb5eb20</title>
<path fill="none" stroke="black" d="M606.961,-292.313C615.397,-283.505 625.817,-272.625 635.075,-262.958"/>
<polygon fill="black" stroke="black" points="637.802,-265.172 642.191,-255.529 632.746,-260.33 637.802,-265.172"/>
</g>
</g>
</svg>
