<?xml version="1.0" encoding="UTF-8" standalone="no"?>
<!DOCTYPE svg PUBLIC "-//W3C//DTD SVG 1.1//EN"
 "http://www.w3.org/Graphics/SVG/1.1/DTD/svg11.dtd">
<!-- Generated by graphviz version 2.38.0 (20140413.2041)
 -->
<!-- Title: unnamed Pages: 1 -->
<svg width="581pt" height="748pt"
 viewBox="0.00 0.00 581.30 748.00" xmlns="http://www.w3.org/2000/svg" xmlns:xlink="http://www.w3.org/1999/xlink">
<g id="graph0" class="graph" transform="scale(1 1) rotate(0) translate(4 744)">
<title>unnamed</title>
<polygon fill="white" stroke="none" points="-4,4 -4,-744 577.296,-744 577.296,4 -4,4"/>
<!-- Node0xd120ce0 -->
<g id="node1" class="node"><title>Node0xd120ce0</title>
<polygon fill="none" stroke="black" points="379.796,-0.5 379.796,-36.5 464.796,-36.5 464.796,-0.5 379.796,-0.5"/>
<text text-anchor="start" x="387.796" y="-14.8" font-family="Times,serif" font-size="14.00">[B0 (EXIT)]</text>
</g>
<!-- Node0xd120db8 -->
<g id="node2" class="node"><title>Node0xd120db8</title>
<polygon fill="none" stroke="black" points="271.296,-73.5 271.296,-141.5 573.296,-141.5 573.296,-73.5 271.296,-73.5"/>
<text text-anchor="start" x="279.296" y="-126.3" font-family="Times,serif" font-size="14.00">[B1]</text>
<text text-anchor="start" x="279.296" y="-111.3" font-family="Times,serif" font-size="14.00"> 1: ret</text>
<text text-anchor="start" x="279.296" y="-96.3" font-family="Times,serif" font-size="14.00"> 2: [B1.1] (ImplicitCastExpr, LValueToRValue, int)</text>
<text text-anchor="start" x="279.296" y="-81.3" font-family="Times,serif" font-size="14.00"> 3: return [B1.2];</text>
</g>
<!-- Node0xd120db8&#45;&gt;Node0xd120ce0 -->
<g id="edge1" class="edge"><title>Node0xd120db8&#45;&gt;Node0xd120ce0</title>
<path fill="none" stroke="black" d="M422.296,-73.1123C422.296,-64.3522 422.296,-55.0128 422.296,-46.6246"/>
<polygon fill="black" stroke="black" points="425.796,-46.6235 422.296,-36.6235 418.796,-46.6235 425.796,-46.6235"/>
</g>
<!-- Node0xd120e90 -->
<g id="node3" class="node"><title>Node0xd120e90</title>
<polygon fill="none" stroke="black" points="71.296,-89.5 71.296,-125.5 125.296,-125.5 125.296,-89.5 71.296,-89.5"/>
<text text-anchor="start" x="79.296" y="-103.8" font-family="Times,serif" font-size="14.00">[B2]</text>
</g>
<!-- Node0xd121310 -->
<g id="node4" class="node"><title>Node0xd121310</title>
<polygon fill="none" stroke="black" points="80.296,-478.5 80.296,-546.5 382.296,-546.5 382.296,-478.5 80.296,-478.5"/>
<text text-anchor="start" x="88.296" y="-531.3" font-family="Times,serif" font-size="14.00">[B6]</text>
<text text-anchor="start" x="88.296" y="-516.3" font-family="Times,serif" font-size="14.00"> 1: i</text>
<text text-anchor="start" x="88.296" y="-501.3" font-family="Times,serif" font-size="14.00"> 2: [B6.1] (ImplicitCastExpr, LValueToRValue, int)</text>
<text text-anchor="start" x="88.296" y="-486.3" font-family="Times,serif" font-size="14.00"> T: while [B6.2]</text>
</g>
<!-- Node0xd120e90&#45;&gt;Node0xd121310 -->
<g id="edge2" class="edge"><title>Node0xd120e90&#45;&gt;Node0xd121310</title>
<path fill="none" stroke="black" d="M72.1135,-125.742C55.8585,-138.112 36.3888,-156.375 27.296,-178 -18.8109,-287.653 -7.42217,-352.82 71.296,-442 82.4371,-454.622 96.2842,-465.039 111.137,-473.614"/>
<polygon fill="black" stroke="black" points="109.532,-476.726 119.985,-478.453 112.891,-470.584 109.532,-476.726"/>
</g>
<!-- Node0xd121310&#45;&gt;Node0xd120db8 -->
<g id="edge8" class="edge"><title>Node0xd121310&#45;&gt;Node0xd120db8</title>
<path fill="none" stroke="black" d="M342.607,-478.453C360.768,-469.043 377.968,-457.099 391.296,-442 462.908,-360.871 446.786,-221.457 432.642,-151.371"/>
<polygon fill="black" stroke="black" points="436.06,-150.616 430.581,-141.548 429.21,-152.054 436.06,-150.616"/>
</g>
<!-- Node0xd121198 -->
<g id="node7" class="node"><title>Node0xd121198</title>
<polygon fill="none" stroke="black" points="80.296,-328.5 80.296,-441.5 382.296,-441.5 382.296,-328.5 80.296,-328.5"/>
<text text-anchor="start" x="88.296" y="-426.3" font-family="Times,serif" font-size="14.00">[B5]</text>
<text text-anchor="start" x="88.296" y="-411.3" font-family="Times,serif" font-size="14.00"> 1: i</text>
<text text-anchor="start" x="88.296" y="-396.3" font-family="Times,serif" font-size="14.00"> 2: [B5.1] (ImplicitCastExpr, LValueToRValue, int)</text>
<text text-anchor="start" x="88.296" y="-381.3" font-family="Times,serif" font-size="14.00"> 3: n</text>
<text text-anchor="start" x="88.296" y="-366.3" font-family="Times,serif" font-size="14.00"> 4: [B5.3] (ImplicitCastExpr, LValueToRValue, int)</text>
<text text-anchor="start" x="88.296" y="-351.3" font-family="Times,serif" font-size="14.00"> 5: [B5.2] &gt; [B5.4]</text>
<text text-anchor="start" x="88.296" y="-336.3" font-family="Times,serif" font-size="14.00"> T: if [B5.5]</text>
</g>
<!-- Node0xd121310&#45;&gt;Node0xd121198 -->
<g id="edge7" class="edge"><title>Node0xd121310&#45;&gt;Node0xd121198</title>
<path fill="none" stroke="black" d="M231.296,-478.198C231.296,-470.073 231.296,-461.096 231.296,-452.027"/>
<polygon fill="black" stroke="black" points="234.796,-451.79 231.296,-441.79 227.796,-451.79 234.796,-451.79"/>
</g>
<!-- Node0xd120f68 -->
<g id="node5" class="node"><title>Node0xd120f68</title>
<polygon fill="none" stroke="black" points="36.296,-178.5 36.296,-291.5 338.296,-291.5 338.296,-178.5 36.296,-178.5"/>
<text text-anchor="start" x="44.296" y="-276.3" font-family="Times,serif" font-size="14.00">[B3]</text>
<text text-anchor="start" x="44.296" y="-261.3" font-family="Times,serif" font-size="14.00"> 1: ret</text>
<text text-anchor="start" x="44.296" y="-246.3" font-family="Times,serif" font-size="14.00"> 2: i</text>
<text text-anchor="start" x="44.296" y="-231.3" font-family="Times,serif" font-size="14.00"> 3: [B3.2] (ImplicitCastExpr, LValueToRValue, int)</text>
<text text-anchor="start" x="44.296" y="-216.3" font-family="Times,serif" font-size="14.00"> 4: [B3.1] *= [B3.3]</text>
<text text-anchor="start" x="44.296" y="-201.3" font-family="Times,serif" font-size="14.00"> 5: i</text>
<text text-anchor="start" x="44.296" y="-186.3" font-family="Times,serif" font-size="14.00"> 6: [B3.5]++</text>
</g>
<!-- Node0xd120f68&#45;&gt;Node0xd120e90 -->
<g id="edge3" class="edge"><title>Node0xd120f68&#45;&gt;Node0xd120e90</title>
<path fill="none" stroke="black" d="M147.741,-178.223C136.802,-162.798 125.46,-146.804 116.402,-134.031"/>
<polygon fill="black" stroke="black" points="119.168,-131.882 110.529,-125.75 113.459,-135.931 119.168,-131.882"/>
</g>
<!-- Node0xd1210c0 -->
<g id="node6" class="node"><title>Node0xd1210c0</title>
<polygon fill="none" stroke="black" points="356.296,-216 356.296,-254 426.296,-254 426.296,-216 356.296,-216"/>
<text text-anchor="start" x="364.296" y="-238.8" font-family="Times,serif" font-size="14.00">[B4]</text>
<text text-anchor="start" x="364.296" y="-223.8" font-family="Times,serif" font-size="14.00"> T: break;</text>
</g>
<!-- Node0xd1210c0&#45;&gt;Node0xd120db8 -->
<g id="edge4" class="edge"><title>Node0xd1210c0&#45;&gt;Node0xd120db8</title>
<path fill="none" stroke="black" d="M395.804,-215.751C399.939,-199.008 406.226,-173.557 411.638,-151.649"/>
<polygon fill="black" stroke="black" points="415.051,-152.424 414.052,-141.877 408.256,-150.746 415.051,-152.424"/>
</g>
<!-- Node0xd121198&#45;&gt;Node0xd120f68 -->
<g id="edge6" class="edge"><title>Node0xd121198&#45;&gt;Node0xd120f68</title>
<path fill="none" stroke="black" d="M214.787,-328.469C212.172,-319.675 209.447,-310.509 206.773,-301.512"/>
<polygon fill="black" stroke="black" points="210.102,-300.43 203.898,-291.842 203.393,-302.425 210.102,-300.43"/>
</g>
<!-- Node0xd121198&#45;&gt;Node0xd1210c0 -->
<g id="edge5" class="edge"><title>Node0xd121198&#45;&gt;Node0xd1210c0</title>
<path fill="none" stroke="black" d="M306.834,-328.318C320.795,-316.866 334.874,-304.478 347.296,-292 356.336,-282.918 365.269,-272.012 372.698,-262.246"/>
<polygon fill="black" stroke="black" points="375.647,-264.146 378.806,-254.032 370.03,-259.969 375.647,-264.146"/>
</g>
<!-- Node0xd121428 -->
<g id="node8" class="node"><title>Node0xd121428</title>
<polygon fill="none" stroke="black" points="184.796,-583.5 184.796,-666.5 277.796,-666.5 277.796,-583.5 184.796,-583.5"/>
<text text-anchor="start" x="192.796" y="-651.3" font-family="Times,serif" font-size="14.00">[B7]</text>
<text text-anchor="start" x="192.796" y="-636.3" font-family="Times,serif" font-size="14.00"> 1: 1</text>
<text text-anchor="start" x="192.796" y="-621.3" font-family="Times,serif" font-size="14.00"> 2: int ret = 1;</text>
<text text-anchor="start" x="192.796" y="-606.3" font-family="Times,serif" font-size="14.00"> 3: 1</text>
<text text-anchor="start" x="192.796" y="-591.3" font-family="Times,serif" font-size="14.00"> 4: int i = 1;</text>
</g>
<!-- Node0xd121428&#45;&gt;Node0xd121310 -->
<g id="edge9" class="edge"><title>Node0xd121428&#45;&gt;Node0xd121310</title>
<path fill="none" stroke="black" d="M231.296,-583.481C231.296,-574.804 231.296,-565.604 231.296,-556.826"/>
<polygon fill="black" stroke="black" points="234.796,-556.771 231.296,-546.771 227.796,-556.771 234.796,-556.771"/>
</g>
<!-- Node0xd121520 -->
<g id="node9" class="node"><title>Node0xd121520</title>
<polygon fill="none" stroke="black" points="181.796,-703.5 181.796,-739.5 280.796,-739.5 280.796,-703.5 181.796,-703.5"/>
<text text-anchor="start" x="189.796" y="-717.8" font-family="Times,serif" font-size="14.00">[B8 (ENTRY)]</text>
</g>
<!-- Node0xd121520&#45;&gt;Node0xd121428 -->
<g id="edge10" class="edge"><title>Node0xd121520&#45;&gt;Node0xd121428</title>
<path fill="none" stroke="black" d="M231.296,-703.167C231.296,-695.654 231.296,-686.427 231.296,-676.999"/>
<polygon fill="black" stroke="black" points="234.796,-676.762 231.296,-666.762 227.796,-676.762 234.796,-676.762"/>
</g>
</g>
</svg>
